<svg xmlns="http://www.w3.org/2000/svg" viewBox="0 0 860 520" font-family="ui-monospace,SFMono-Regular,Menlo,Monaco,Consolas,monospace" font-size="13">
  <style>
    @keyframes pulse-green  { 0%,100% { opacity:0.5 } 50% { opacity:1 } }
    @keyframes pulse-yellow { 0%,100% { opacity:0.4 } 50% { opacity:1 } }
    @keyframes pulse-blue   { 0%,100% { opacity:0.3 } 50% { opacity:1 } }
    @keyframes fadein { from { opacity:0 } to { opacity:1 } }
    .pg { animation: pulse-green 2s infinite }
    .py { animation: pulse-yellow 1.8s infinite }
    .pb { animation: pulse-blue 2.2s infinite }
    .f1 { animation: fadein 0.4s 0.2s both }
    .f2 { animation: fadein 0.4s 0.4s both }
    .f3 { animation: fadein 0.4s 0.6s both }
    .f4 { animation: fadein 0.4s 0.8s both }
    .f5 { animation: fadein 0.4s 1.0s both }
    .f6 { animation: fadein 0.4s 1.3s both }
    .f7 { animation: fadein 0.4s 1.5s both }
    .f8 { animation: fadein 0.4s 1.7s both }
    .f9 { animation: fadein 0.4s 1.9s both }
    .f10 { animation: fadein 0.4s 2.1s both }
    .f11 { animation: fadein 0.4s 2.3s both }
    .f12 { animation: fadein 0.4s 2.5s both }
  </style>

  <!-- Window chrome -->
  <rect rx="10" width="860" height="520" fill="#1a1b26"/>
  <rect width="860" height="36" rx="10" fill="#16161e"/>
  <rect y="26" width="860" height="10" fill="#16161e"/>
  <circle cx="20" cy="18" r="6" fill="#f7768e"/>
  <circle cx="40" cy="18" r="6" fill="#e0af68"/>
  <circle cx="60" cy="18" r="6" fill="#9ece6a"/>
  <text x="430" y="22" text-anchor="middle" fill="#565f89" font-size="12">turnstone — console</text>

  <!-- Header -->
  <rect y="36" width="860" height="30" fill="#24283b"/>
  <rect y="66" width="860" height="1" fill="#3b4261"/>
  <text x="16" y="56" fill="#7aa2f7" font-size="14" font-weight="bold">turnstone console</text>
  <text x="200" y="56" fill="#565f89" font-size="12">6 nodes · 10 workstreams</text>

  <!-- ====== State cards ====== -->
  <g transform="translate(16, 78)" class="f1" opacity="0">
    <!-- RUN card -->
    <rect x="0" y="0" width="156" height="64" rx="6" fill="#24283b" stroke="#3b4261"/>
    <rect x="0" y="0" width="156" height="3" rx="6" fill="#9ece6a"/>
    <text x="78" y="30" text-anchor="middle" fill="#a9b1d6" font-size="22" font-weight="bold">3</text>
    <text x="78" y="50" text-anchor="middle" fill="#565f89" font-size="10">▸ RUN</text>

    <!-- THINK card -->
    <rect x="168" y="0" width="156" height="64" rx="6" fill="#24283b" stroke="#3b4261"/>
    <rect x="168" y="0" width="156" height="3" rx="6" fill="#7aa2f7"/>
    <text x="246" y="30" text-anchor="middle" fill="#a9b1d6" font-size="22" font-weight="bold">2</text>
    <text x="246" y="50" text-anchor="middle" fill="#565f89" font-size="10">◌ THINK</text>

    <!-- ATTN card -->
    <rect x="336" y="0" width="156" height="64" rx="6" fill="#24283b" stroke="#3b4261"/>
    <rect x="336" y="0" width="156" height="3" rx="6" fill="#e0af68"/>
    <text x="414" y="30" text-anchor="middle" fill="#a9b1d6" font-size="22" font-weight="bold">1</text>
    <text x="414" y="50" text-anchor="middle" fill="#565f89" font-size="10">◆ ATTN</text>

    <!-- ERR card -->
    <rect x="504" y="0" width="156" height="64" rx="6" fill="#24283b" stroke="#3b4261"/>
    <rect x="504" y="0" width="156" height="3" rx="6" fill="#f7768e"/>
    <text x="582" y="30" text-anchor="middle" fill="#a9b1d6" font-size="22" font-weight="bold">0</text>
    <text x="582" y="50" text-anchor="middle" fill="#565f89" font-size="10">✖ ERR</text>

    <!-- IDLE card -->
    <rect x="672" y="0" width="156" height="64" rx="6" fill="#24283b" stroke="#3b4261"/>
    <rect x="672" y="0" width="156" height="3" rx="6" fill="#565f89"/>
    <text x="750" y="30" text-anchor="middle" fill="#a9b1d6" font-size="22" font-weight="bold">4</text>
    <text x="750" y="50" text-anchor="middle" fill="#565f89" font-size="10">· IDLE</text>
  </g>

  <!-- Aggregate bar -->
  <text x="16" y="160" fill="#565f89" font-size="11" class="f2" opacity="0">197k tokens · 42 tool calls</text>

  <!-- ====== NODES section ====== -->
  <text x="16" y="182" fill="#7aa2f7" font-size="12" font-weight="bold" class="f3" opacity="0">NODES</text>

  <!-- Node column headers -->
  <g transform="translate(0, 190)" class="f4" opacity="0">
    <rect width="860" height="20" fill="#24283b"/>
    <rect y="20" width="860" height="1" fill="#3b4261"/>
    <text y="14" fill="#565f89" font-size="10" letter-spacing="0.5">
      <tspan x="36">NODE</tspan>
      <tspan x="560">WS</tspan>
      <tspan x="610">RUN</tspan>
      <tspan x="660">ATTN</tspan>
      <tspan x="710">TOKENS</tspan>
      <tspan x="790">LOAD</tspan>
    </text>
  </g>

  <!-- Node rows -->
  <g transform="translate(0, 214)">

    <!-- Node 1: db-west-04 — 3 ws, 1 running, has-running bar -->
    <g class="f5" opacity="0">
      <rect y="0" width="860" height="38" fill="#1a1b26"/>
      <rect y="0" width="3" height="38" fill="#9ece6a"/>
      <circle cx="22" cy="19" r="4" fill="#9ece6a"/>
      <text x="36" y="23" fill="#a9b1d6" font-size="12" font-weight="bold">db-west-04</text>
      <text x="566" y="23" fill="#a9b1d6" font-size="11">3</text>
      <text x="616" y="23" fill="#a9b1d6" font-size="11">1</text>
      <text x="666" y="23" fill="#565f89" font-size="11">0</text>
      <text x="710" y="23" fill="#565f89" font-size="11">57.6k</text>
      <!-- Load bar: 3/10 = 30% -->
      <rect x="770" y="15" width="60" height="6" rx="3" fill="#292e42"/>
      <rect x="770" y="15" width="18" height="6" rx="3" fill="#9ece6a"/>
      <text x="838" y="23" fill="#565f89" font-size="11">30%</text>
    </g>

    <!-- Node 2: api-east-01 — 3 ws, 1 attention, has-attention bar -->
    <g class="f6" opacity="0">
      <rect y="40" width="860" height="38" fill="#24283b"/>
      <rect y="40" width="3" height="38" fill="#e0af68"/>
      <circle cx="22" cy="59" r="4" fill="#9ece6a"/>
      <text x="36" y="63" fill="#a9b1d6" font-size="12" font-weight="bold">api-east-01</text>
      <text x="566" y="63" fill="#a9b1d6" font-size="11">3</text>
      <text x="616" y="63" fill="#565f89" font-size="11">0</text>
      <text x="666" y="63" fill="#a9b1d6" font-size="11">1</text>
      <text x="710" y="63" fill="#565f89" font-size="11">109k</text>
      <!-- Load bar: 3/10 = 30% -->
      <rect x="770" y="55" width="60" height="6" rx="3" fill="#292e42"/>
      <rect x="770" y="55" width="18" height="6" rx="3" fill="#9ece6a"/>
      <text x="838" y="63" fill="#565f89" font-size="11">30%</text>
    </g>

    <!-- Node 3: sre-node-03 — 2 ws, 1 running, has-running bar -->
    <g class="f7" opacity="0">
      <rect y="80" width="860" height="38" fill="#1a1b26"/>
      <rect y="80" width="3" height="38" fill="#9ece6a"/>
      <circle cx="22" cy="99" r="4" fill="#9ece6a"/>
      <text x="36" y="103" fill="#a9b1d6" font-size="12" font-weight="bold">sre-node-03</text>
      <text x="566" y="103" fill="#a9b1d6" font-size="11">2</text>
      <text x="616" y="103" fill="#a9b1d6" font-size="11">1</text>
      <text x="666" y="103" fill="#565f89" font-size="11">0</text>
      <text x="710" y="103" fill="#565f89" font-size="11">64.4k</text>
      <!-- Load bar: 2/10 = 20% -->
      <rect x="770" y="95" width="60" height="6" rx="3" fill="#292e42"/>
      <rect x="770" y="95" width="12" height="6" rx="3" fill="#9ece6a"/>
      <text x="838" y="103" fill="#565f89" font-size="11">20%</text>
    </g>

    <!-- Node 4: analytics-02 — 1 ws, thinking, has-thinking bar -->
    <g class="f8" opacity="0">
      <rect y="120" width="860" height="38" fill="#24283b"/>
      <rect y="120" width="3" height="38" fill="#7aa2f7"/>
      <circle cx="22" cy="139" r="4" fill="#9ece6a"/>
      <text x="36" y="143" fill="#a9b1d6" font-size="12" font-weight="bold">analytics-02</text>
      <text x="566" y="143" fill="#a9b1d6" font-size="11">1</text>
      <text x="616" y="143" fill="#565f89" font-size="11">0</text>
      <text x="666" y="143" fill="#565f89" font-size="11">0</text>
      <text x="710" y="143" fill="#565f89" font-size="11">18.3k</text>
      <!-- Load bar: 1/10 = 10% -->
      <rect x="770" y="135" width="60" height="6" rx="3" fill="#292e42"/>
      <rect x="770" y="135" width="6" height="6" rx="3" fill="#9ece6a"/>
      <text x="838" y="143" fill="#565f89" font-size="11">10%</text>
    </g>

    <!-- Node 5: data-ops-05 — 1 ws, thinking, has-thinking bar -->
    <g class="f9" opacity="0">
      <rect y="160" width="860" height="38" fill="#1a1b26"/>
      <rect y="160" width="3" height="38" fill="#7aa2f7"/>
      <circle cx="22" cy="179" r="4" fill="#9ece6a"/>
      <text x="36" y="183" fill="#a9b1d6" font-size="12" font-weight="bold">data-ops-05</text>
      <text x="566" y="183" fill="#a9b1d6" font-size="11">1</text>
      <text x="616" y="183" fill="#565f89" font-size="11">0</text>
      <text x="666" y="183" fill="#565f89" font-size="11">0</text>
      <text x="710" y="183" fill="#565f89" font-size="11">8.7k</text>
      <!-- Load bar: 1/10 = 10% -->
      <rect x="770" y="175" width="60" height="6" rx="3" fill="#292e42"/>
      <rect x="770" y="175" width="6" height="6" rx="3" fill="#9ece6a"/>
      <text x="838" y="183" fill="#565f89" font-size="11">10%</text>
    </g>

    <!-- Node 6: ml-gpu-07 — 0 ws, empty, no bar -->
    <g class="f10" opacity="0">
      <rect y="200" width="860" height="38" fill="#24283b"/>
      <rect y="200" width="3" height="38" fill="transparent"/>
      <circle cx="22" cy="219" r="4" fill="#9ece6a"/>
      <text x="36" y="223" fill="#a9b1d6" font-size="12" font-weight="bold">ml-gpu-07</text>
      <text x="566" y="223" fill="#565f89" font-size="11">0</text>
      <text x="616" y="223" fill="#565f89" font-size="11">0</text>
      <text x="666" y="223" fill="#565f89" font-size="11">0</text>
      <text x="710" y="223" fill="#565f89" font-size="11">0</text>
      <!-- Load bar: 0/10 = 0% (empty track) -->
      <rect x="770" y="215" width="60" height="6" rx="3" fill="#292e42"/>
      <text x="842" y="223" fill="#565f89" font-size="11">0%</text>
    </g>

  </g>

  <!-- ====== Footer ====== -->
  <g transform="translate(0, 468)" class="f12" opacity="0">
    <rect width="860" height="1" fill="#3b4261"/>
    <rect y="1" width="860" height="24" fill="#16161e"/>

    <circle cx="20" cy="14" r="3" fill="#9ece6a"/>
    <text x="28" y="18" fill="#565f89" font-size="10">db-west-04</text>

    <circle cx="120" cy="14" r="3" fill="#9ece6a"/>
    <text x="128" y="18" fill="#565f89" font-size="10">api-east-01</text>

    <circle cx="225" cy="14" r="3" fill="#9ece6a"/>
    <text x="233" y="18" fill="#565f89" font-size="10">sre-node-03</text>

    <circle cx="335" cy="14" r="3" fill="#9ece6a"/>
    <text x="343" y="18" fill="#565f89" font-size="10">analytics-02</text>

    <circle cx="450" cy="14" r="3" fill="#9ece6a"/>
    <text x="458" y="18" fill="#565f89" font-size="10">data-ops-05</text>

    <circle cx="560" cy="14" r="3" fill="#9ece6a"/>
    <text x="568" y="18" fill="#565f89" font-size="10">ml-gpu-07</text>

    <text x="680" y="18" fill="#3b4261" font-size="10">258k tokens · 42 calls · 12m</text>
  </g>

  <!-- Bottom edge -->
  <rect y="493" width="860" height="27" fill="#16161e"/>
  <rect y="510" width="860" height="10" rx="10" fill="#16161e"/>
</svg>
