<svg xmlns="http://www.w3.org/2000/svg" viewBox="0 0 1200 540" font-family="-apple-system, BlinkMacSystemFont, 'Segoe UI', Helvetica, Arial, sans-serif">
  <defs>
    <!-- Arrowhead markers -->
    <marker id="arrow" viewBox="0 0 10 7" refX="10" refY="3.5" markerWidth="8" markerHeight="6" orient="auto-start-auto">
      <path d="M 0 0 L 10 3.5 L 0 7 z" fill="#484f58"/>
    </marker>
    <marker id="arrow-blue" viewBox="0 0 10 7" refX="10" refY="3.5" markerWidth="8" markerHeight="6" orient="auto-start-auto">
      <path d="M 0 0 L 10 3.5 L 0 7 z" fill="#58a6ff"/>
    </marker>
    <marker id="arrow-green" viewBox="0 0 10 7" refX="10" refY="3.5" markerWidth="8" markerHeight="6" orient="auto-start-auto">
      <path d="M 0 0 L 10 3.5 L 0 7 z" fill="#3fb950"/>
    </marker>
    <marker id="arrow-orange" viewBox="0 0 10 7" refX="10" refY="3.5" markerWidth="8" markerHeight="6" orient="auto-start-auto">
      <path d="M 0 0 L 10 3.5 L 0 7 z" fill="#f0883e"/>
    </marker>
    <marker id="arrow-coral" viewBox="0 0 10 7" refX="10" refY="3.5" markerWidth="8" markerHeight="6" orient="auto-start-auto">
      <path d="M 0 0 L 10 3.5 L 0 7 z" fill="#f47067"/>
    </marker>
    <marker id="arrow-muted" viewBox="0 0 10 7" refX="10" refY="3.5" markerWidth="8" markerHeight="6" orient="auto-start-auto">
      <path d="M 0 0 L 10 3.5 L 0 7 z" fill="#8b949e"/>
    </marker>

    <!-- Card shadow filter -->
    <filter id="shadow" x="-4%" y="-4%" width="108%" height="112%">
      <feDropShadow dx="0" dy="1" stdDeviation="2" flood-color="#000" flood-opacity="0.4"/>
    </filter>
  </defs>

  <!-- Background -->
  <rect width="1200" height="540" rx="8" fill="#0d1117"/>

  <!-- Title -->
  <text x="600" y="36" text-anchor="middle" fill="#e6edf3" font-size="15" font-weight="700" letter-spacing="3">TURNSTONE</text>
  <text x="600" y="54" text-anchor="middle" fill="#8b949e" font-size="11" letter-spacing="1">SYSTEM ARCHITECTURE</text>

  <!-- ==================== COLUMN HEADERS ==================== -->
  <text x="110" y="86" text-anchor="middle" fill="#58a6ff" font-size="9" font-weight="600" letter-spacing="2">CLIENTS</text>
  <text x="380" y="86" text-anchor="middle" fill="#3fb950" font-size="9" font-weight="600" letter-spacing="2">CONSOLE ROUTER</text>
  <text x="700" y="86" text-anchor="middle" fill="#f47067" font-size="9" font-weight="600" letter-spacing="2">SERVER NODES</text>
  <text x="1010" y="86" text-anchor="middle" fill="#f778ba" font-size="9" font-weight="600" letter-spacing="2">LLM PROVIDERS</text>

  <!-- ==================== CLIENT BOXES ==================== -->
  <!-- CLI -->
  <g filter="url(#shadow)">
    <rect x="40" y="108" width="140" height="46" rx="5" fill="#161b22" stroke="#30363d" stroke-width="1"/>
    <rect x="40" y="108" width="140" height="5" rx="5" fill="#58a6ff"/>
    <rect x="40" y="108" width="140" height="5" fill="#58a6ff"/>
    <rect x="40" y="111" width="140" height="2" fill="#161b22"/>
    <text x="110" y="130" text-anchor="middle" fill="#e6edf3" font-size="11" font-weight="600">CLI</text>
    <text x="110" y="145" text-anchor="middle" fill="#8b949e" font-size="9">terminal REPL</text>
  </g>

  <!-- Browser UI -->
  <g filter="url(#shadow)">
    <rect x="40" y="174" width="140" height="46" rx="5" fill="#161b22" stroke="#30363d" stroke-width="1"/>
    <rect x="40" y="174" width="140" height="5" rx="5" fill="#58a6ff"/>
    <rect x="40" y="174" width="140" height="5" fill="#58a6ff"/>
    <rect x="40" y="177" width="140" height="2" fill="#161b22"/>
    <text x="110" y="196" text-anchor="middle" fill="#e6edf3" font-size="11" font-weight="600">Browser UI</text>
    <text x="110" y="211" text-anchor="middle" fill="#8b949e" font-size="9">HTTP + SSE</text>
  </g>

  <!-- SDK / API -->
  <g filter="url(#shadow)">
    <rect x="40" y="244" width="140" height="46" rx="5" fill="#161b22" stroke="#30363d" stroke-width="1"/>
    <rect x="40" y="244" width="140" height="5" rx="5" fill="#58a6ff"/>
    <rect x="40" y="244" width="140" height="5" fill="#58a6ff"/>
    <rect x="40" y="247" width="140" height="2" fill="#161b22"/>
    <text x="110" y="266" text-anchor="middle" fill="#e6edf3" font-size="11" font-weight="600">SDK / API</text>
    <text x="110" y="281" text-anchor="middle" fill="#8b949e" font-size="9">programmatic</text>
  </g>

  <!-- Channel Gateway -->
  <g filter="url(#shadow)">
    <rect x="40" y="314" width="140" height="46" rx="5" fill="#161b22" stroke="#30363d" stroke-width="1"/>
    <rect x="40" y="314" width="140" height="5" rx="5" fill="#58a6ff"/>
    <rect x="40" y="314" width="140" height="5" fill="#58a6ff"/>
    <rect x="40" y="317" width="140" height="2" fill="#161b22"/>
    <text x="110" y="336" text-anchor="middle" fill="#e6edf3" font-size="11" font-weight="600">Channel Gateway</text>
    <text x="110" y="351" text-anchor="middle" fill="#8b949e" font-size="9">Discord, Slack, ...</text>
  </g>

  <!-- ==================== CONSOLE ROUTER ==================== -->
  <g filter="url(#shadow)">
    <rect x="300" y="148" width="160" height="170" rx="5" fill="#161b22" stroke="#30363d" stroke-width="1"/>
    <rect x="300" y="148" width="160" height="5" rx="5" fill="#3fb950"/>
    <rect x="300" y="148" width="160" height="5" fill="#3fb950"/>
    <rect x="300" y="151" width="160" height="2" fill="#161b22"/>
    <text x="380" y="178" text-anchor="middle" fill="#e6edf3" font-size="11" font-weight="600">Console</text>
    <line x1="318" y1="190" x2="442" y2="190" stroke="#30363d" stroke-width="1"/>
    <text x="380" y="208" text-anchor="middle" fill="#8b949e" font-size="9">hash-ring router</text>
    <text x="380" y="223" text-anchor="middle" fill="#8b949e" font-size="9">cluster dashboard</text>
    <text x="380" y="238" text-anchor="middle" fill="#8b949e" font-size="9">reverse proxy</text>
    <line x1="318" y1="250" x2="442" y2="250" stroke="#30363d" stroke-width="1"/>
    <text x="380" y="268" text-anchor="middle" fill="#484f58" font-size="8">control plane:</text>
    <text x="380" y="282" text-anchor="middle" fill="#484f58" font-size="8">create / send / approve</text>
    <text x="380" y="296" text-anchor="middle" fill="#484f58" font-size="8">cancel / command / close</text>
    <text x="380" y="310" text-anchor="middle" fill="#484f58" font-size="8">port 8090</text>
  </g>

  <!-- ==================== SERVER NODES ==================== -->
  <!-- Cluster outline -->
  <rect x="570" y="100" width="260" height="310" rx="8" fill="none" stroke="#30363d" stroke-width="1" stroke-dasharray="4,3"/>
  <text x="700" y="422" text-anchor="middle" fill="#30363d" font-size="9" letter-spacing="1">CLUSTER</text>

  <!-- Node A -->
  <g filter="url(#shadow)">
    <rect x="590" y="118" width="220" height="100" rx="5" fill="#161b22" stroke="#30363d" stroke-width="1"/>
    <rect x="590" y="118" width="220" height="5" rx="5" fill="#f47067"/>
    <rect x="590" y="118" width="220" height="5" fill="#f47067"/>
    <rect x="590" y="121" width="220" height="2" fill="#161b22"/>
    <text x="700" y="142" text-anchor="middle" fill="#e6edf3" font-size="11" font-weight="600">Server Node A</text>
    <line x1="608" y1="152" x2="792" y2="152" stroke="#30363d" stroke-width="1"/>
    <!-- Server process -->
    <rect x="608" y="162" width="184" height="28" rx="3" fill="#1c2128" stroke="#30363d" stroke-width="1"/>
    <text x="700" y="180" text-anchor="middle" fill="#8b949e" font-size="9">turnstone-server :8080</text>
    <!-- Tools label -->
    <text x="700" y="206" text-anchor="middle" fill="#484f58" font-size="8">19 tools + MCP</text>
  </g>

  <!-- Node B -->
  <g filter="url(#shadow)">
    <rect x="590" y="238" width="220" height="100" rx="5" fill="#161b22" stroke="#30363d" stroke-width="1"/>
    <rect x="590" y="238" width="220" height="5" rx="5" fill="#f47067"/>
    <rect x="590" y="238" width="220" height="5" fill="#f47067"/>
    <rect x="590" y="241" width="220" height="2" fill="#161b22"/>
    <text x="700" y="262" text-anchor="middle" fill="#e6edf3" font-size="11" font-weight="600">Server Node B</text>
    <line x1="608" y1="272" x2="792" y2="272" stroke="#30363d" stroke-width="1"/>
    <!-- Server process -->
    <rect x="608" y="282" width="184" height="28" rx="3" fill="#1c2128" stroke="#30363d" stroke-width="1"/>
    <text x="700" y="300" text-anchor="middle" fill="#8b949e" font-size="9">turnstone-server :8080</text>
    <!-- Tools label -->
    <text x="700" y="326" text-anchor="middle" fill="#484f58" font-size="8">19 tools + MCP</text>
  </g>

  <!-- ==================== LLM PROVIDERS ==================== -->
  <!-- OpenAI -->
  <g filter="url(#shadow)">
    <rect x="930" y="130" width="160" height="46" rx="5" fill="#161b22" stroke="#30363d" stroke-width="1"/>
    <rect x="930" y="130" width="160" height="5" rx="5" fill="#f778ba"/>
    <rect x="930" y="130" width="160" height="5" fill="#f778ba"/>
    <rect x="930" y="133" width="160" height="2" fill="#161b22"/>
    <text x="1010" y="153" text-anchor="middle" fill="#e6edf3" font-size="11" font-weight="600">OpenAI</text>
    <text x="1010" y="167" text-anchor="middle" fill="#8b949e" font-size="9">GPT-5, o-series</text>
  </g>

  <!-- Anthropic -->
  <g filter="url(#shadow)">
    <rect x="930" y="196" width="160" height="46" rx="5" fill="#161b22" stroke="#30363d" stroke-width="1"/>
    <rect x="930" y="196" width="160" height="5" rx="5" fill="#f778ba"/>
    <rect x="930" y="196" width="160" height="5" fill="#f778ba"/>
    <rect x="930" y="199" width="160" height="2" fill="#161b22"/>
    <text x="1010" y="219" text-anchor="middle" fill="#e6edf3" font-size="11" font-weight="600">Anthropic</text>
    <text x="1010" y="233" text-anchor="middle" fill="#8b949e" font-size="9">Claude 4.5 / 4.6</text>
  </g>

  <!-- Local / vLLM -->
  <g filter="url(#shadow)">
    <rect x="930" y="262" width="160" height="46" rx="5" fill="#161b22" stroke="#30363d" stroke-width="1"/>
    <rect x="930" y="262" width="160" height="5" rx="5" fill="#f778ba"/>
    <rect x="930" y="262" width="160" height="5" fill="#f778ba"/>
    <rect x="930" y="265" width="160" height="2" fill="#161b22"/>
    <text x="1010" y="285" text-anchor="middle" fill="#e6edf3" font-size="11" font-weight="600">Local / vLLM</text>
    <text x="1010" y="299" text-anchor="middle" fill="#8b949e" font-size="9">llama.cpp, NIM</text>
  </g>

  <!-- ==================== STORAGE ==================== -->
  <g filter="url(#shadow)">
    <rect x="590" y="450" width="220" height="52" rx="5" fill="#161b22" stroke="#30363d" stroke-width="1"/>
    <rect x="590" y="450" width="220" height="5" rx="5" fill="#bc8cff"/>
    <rect x="590" y="450" width="220" height="5" fill="#bc8cff"/>
    <rect x="590" y="453" width="220" height="2" fill="#161b22"/>
    <text x="700" y="476" text-anchor="middle" fill="#e6edf3" font-size="11" font-weight="600">PostgreSQL / SQLite</text>
    <text x="700" y="492" text-anchor="middle" fill="#8b949e" font-size="9">conversations, memory, auth</text>
  </g>
  <text x="700" y="444" text-anchor="middle" fill="#bc8cff" font-size="9" font-weight="600" letter-spacing="2">STORAGE</text>

  <!-- ==================== CONNECTION LINES ==================== -->

  <!-- CLIENT -> CONSOLE connections (control plane) -->
  <!-- Browser -> Console -->
  <line x1="180" y1="197" x2="298" y2="210" stroke="#58a6ff" stroke-width="1.2" stroke-opacity="0.6" marker-end="url(#arrow-blue)"/>
  <!-- Channel -> Console -->
  <line x1="180" y1="337" x2="298" y2="290" stroke="#58a6ff" stroke-width="1.2" stroke-opacity="0.6" marker-end="url(#arrow-blue)"/>
  <!-- SDK -> Console -->
  <line x1="180" y1="267" x2="298" y2="248" stroke="#58a6ff" stroke-width="1.2" stroke-opacity="0.6" marker-end="url(#arrow-blue)"/>
  <text x="240" y="238" fill="#484f58" font-size="8" text-anchor="middle">HTTP</text>

  <!-- CLI -> direct to Node A (single-node mode, top path) -->
  <path d="M 180 131 C 250 110, 400 100, 588 168" stroke="#58a6ff" stroke-width="1.2" stroke-opacity="0.5" fill="none" stroke-dasharray="6,3" marker-end="url(#arrow-blue)"/>
  <text x="370" y="104" fill="#484f58" font-size="8" text-anchor="middle">direct (single-node)</text>

  <!-- CONSOLE -> NODE connections (proxy) -->
  <!-- Console -> Node A -->
  <line x1="460" y1="200" x2="588" y2="176" stroke="#3fb950" stroke-width="1.2" stroke-opacity="0.6" marker-end="url(#arrow-green)"/>
  <!-- Console -> Node B -->
  <line x1="460" y1="260" x2="588" y2="296" stroke="#3fb950" stroke-width="1.2" stroke-opacity="0.6" marker-end="url(#arrow-green)"/>
  <text x="520" y="222" fill="#484f58" font-size="8" text-anchor="middle">proxy</text>

  <!-- CLIENT -> NODE direct SSE (data plane, dashed) -->
  <!-- Browser -> Node A SSE -->
  <path d="M 180 190 C 260 180, 400 150, 588 155" stroke="#58a6ff" stroke-width="1" stroke-opacity="0.35" fill="none" stroke-dasharray="4,3" marker-end="url(#arrow-blue)"/>
  <!-- SDK -> Node B SSE -->
  <path d="M 180 275 C 260 290, 400 320, 588 300" stroke="#58a6ff" stroke-width="1" stroke-opacity="0.35" fill="none" stroke-dasharray="4,3" marker-end="url(#arrow-blue)"/>
  <text x="400" y="310" fill="#484f58" font-size="8" text-anchor="middle">SSE (data plane)</text>

  <!-- NODE -> LLM connections -->
  <!-- Node A -> LLM providers -->
  <line x1="810" y1="168" x2="928" y2="155" stroke="#f47067" stroke-width="1.2" stroke-opacity="0.5" marker-end="url(#arrow-coral)"/>
  <line x1="810" y1="176" x2="928" y2="219" stroke="#f47067" stroke-width="1.2" stroke-opacity="0.3"/>
  <line x1="810" y1="180" x2="928" y2="282" stroke="#f47067" stroke-width="1.2" stroke-opacity="0.2"/>

  <!-- Node B -> LLM providers -->
  <line x1="810" y1="288" x2="928" y2="163" stroke="#f47067" stroke-width="1.2" stroke-opacity="0.2"/>
  <line x1="810" y1="296" x2="928" y2="222" stroke="#f47067" stroke-width="1.2" stroke-opacity="0.3"/>
  <line x1="810" y1="300" x2="928" y2="288" stroke="#f47067" stroke-width="1.2" stroke-opacity="0.5" marker-end="url(#arrow-coral)"/>

  <!-- NODE -> STORAGE connections -->
  <line x1="680" y1="338" x2="680" y2="448" stroke="#bc8cff" stroke-width="1.2" stroke-opacity="0.4" stroke-dasharray="4,3" marker-end="url(#arrow-muted)"/>
  <line x1="718" y1="218" x2="718" y2="236" stroke="#484f58" stroke-width="1" stroke-opacity="0.3" stroke-dasharray="2,2"/>

  <!-- Extensibility hint -->
  <text x="700" y="392" text-anchor="middle" fill="#30363d" font-size="10">...</text>

  <!-- ==================== FLOW LABELS ==================== -->
  <!-- Direct / single-node flow label -->
  <rect x="30" y="395" width="10" height="10" rx="2" fill="none" stroke="#58a6ff" stroke-width="1.5" stroke-dasharray="3,2"/>
  <text x="46" y="404" fill="#8b949e" font-size="9">direct (single-node / SSE)</text>

  <!-- Control plane label -->
  <rect x="200" y="395" width="10" height="10" rx="2" fill="none" stroke="#58a6ff" stroke-width="1.5"/>
  <text x="216" y="404" fill="#8b949e" font-size="9">control plane (HTTP)</text>

  <!-- Proxy label -->
  <rect x="340" y="395" width="10" height="10" rx="2" fill="none" stroke="#3fb950" stroke-width="1.5"/>
  <text x="356" y="404" fill="#8b949e" font-size="9">console proxy</text>

  <!-- ==================== BOTTOM DETAILS ==================== -->
  <line x1="30" y1="430" x2="1170" y2="430" stroke="#21262d" stroke-width="1"/>

  <!-- Routing rules at bottom, left-aligned -->
  <text x="44" y="456" fill="#30363d" font-size="9" font-weight="600" letter-spacing="1">ROUTING</text>
  <circle cx="44" cy="474" r="3" fill="#3fb950" opacity="0.6"/>
  <text x="54" y="477" fill="#484f58" font-size="9">control plane: client &#x2192; console &#x2192; server node (hash-ring bucket lookup)</text>
  <circle cx="44" cy="494" r="3" fill="#58a6ff" opacity="0.6"/>
  <text x="54" y="497" fill="#484f58" font-size="9">data plane: client &#x2192; server node (direct SSE, node_url from create response)</text>
  <circle cx="44" cy="514" r="3" fill="#f47067" opacity="0.6"/>
  <text x="54" y="517" fill="#484f58" font-size="9">single-node: client &#x2192; server (direct HTTP + SSE, no console needed)</text>
</svg>
